HIERARCHY
ROOT Hips
{
 OFFSET 0.000000 0.000000 0.000000
 CHANNELS 6 Xposition Yposition Zposition Yrotation Xrotation Zrotation
 JOINT Chest
 {
  OFFSET 0.000000 9.588913 -0.003946
  CHANNELS 3 Yrotation Xrotation Zrotation
  JOINT Chest2
  {
   OFFSET 0.000000 9.541882 0.008053
   CHANNELS 3 Yrotation Xrotation Zrotation
   JOINT Chest3
   {
    OFFSET 0.000000 9.501360 0.000000
    CHANNELS 3 Yrotation Xrotation Zrotation
    JOINT Chest4
    {
     OFFSET 0.000000 9.491660 0.000000
     CHANNELS 3 Yrotation Xrotation Zrotation
     JOINT Neck
     {
      OFFSET 0.000000 14.331917 0.000000
      CHANNELS 3 Yrotation Xrotation Zrotation
      JOINT Head
      {
       OFFSET 0.000000 8.884799 0.017034
       CHANNELS 3 Yrotation Xrotation Zrotation
       End Site
       {
        OFFSET 0.000000 16.896195 0.008993
       }
      }
     }
     JOINT RightCollar
     {
      OFFSET -2.923010 9.499495 0.000000
      CHANNELS 3 Yrotation Xrotation Zrotation
      JOINT RightShoulder
      {
       OFFSET -13.795216 0.000000 0.000000
       CHANNELS 3 Yrotation Xrotation Zrotation
       JOINT RightElbow
       {
        OFFSET -30.272209 0.000000 0.000000
        CHANNELS 3 Yrotation Xrotation Zrotation
        JOINT RightWrist
        {
         OFFSET -24.478199 0.000000 0.000000
         CHANNELS 3 Yrotation Xrotation Zrotation
         End Site
         {
          OFFSET -18.090752 0.000000 0.000000
         }
        }
       }
      }
     }
     JOINT LeftCollar
     {
      OFFSET 2.923010 9.499495 0.000000
      CHANNELS 3 Yrotation Xrotation Zrotation
      JOINT LeftShoulder
      {
       OFFSET 13.795216 0.000000 0.000000
       CHANNELS 3 Yrotation Xrotation Zrotation
       JOINT LeftElbow
       {
        OFFSET 30.272209 0.000000 0.000000
        CHANNELS 3 Yrotation Xrotation Zrotation
        JOINT LeftWrist
        {
         OFFSET 24.478199 0.000000 0.000000
         CHANNELS 3 Yrotation Xrotation Zrotation
         End Site
         {
          OFFSET 18.090752 0.000000 0.000000
         }
        }
       }
      }
     }
    }
   }
  }
 }
 JOINT RightHip
 {
  OFFSET -7.826875 0.019532 0.001973
  CHANNELS 3 Yrotation Xrotation Zrotation
  JOINT RightKnee
  {
   OFFSET 0.000000 -40.546152 -0.001885
   CHANNELS 3 Yrotation Xrotation Zrotation
   JOINT RightAnkle
   {
    OFFSET 0.000000 -39.417092 -0.003189
    CHANNELS 3 Yrotation Xrotation Zrotation
    JOINT RightToe
    {
     OFFSET 0.000000 -7.579396 17.243563
     CHANNELS 3 Yrotation Xrotation Zrotation
     End Site
     {
      OFFSET 0.000000 -1.500329 6.694466
     }
    }
   }
  }
 }
 JOINT LeftHip
 {
  OFFSET 7.826875 0.019532 0.001973
  CHANNELS 3 Yrotation Xrotation Zrotation
  JOINT LeftKnee
  {
   OFFSET 0.000000 -40.546152 -0.001885
   CHANNELS 3 Yrotation Xrotation Zrotation
   JOINT LeftAnkle
   {
    OFFSET 0.000000 -39.417092 -0.003189
    CHANNELS 3 Yrotation Xrotation Zrotation
    JOINT LeftToe
    {
     OFFSET 0.000000 -7.579396 17.243563
     CHANNELS 3 Yrotation Xrotation Zrotation
     End Site
     {
      OFFSET 0.000000 -1.500329 6.694466
     }
    }
   }
  }
 }
}
MOTION
Frames: 11
Frame Time: 0.008333
104.106535 89.200692 94.833830 51.446379 -3.245589 0.371625 -2.277893 1.904705 -0.025830 -1.305446 1.089497 -0.017772 -1.631934 1.361787 -0.026095 -1.305446 1.089498 -0.017772 -2.891375 21.411803 0.821406 -3.290574 -2.857159 1.542525 -0.179461 -1.088679 -3.451783 -17.262199 4.643184 64.391669 65.232850 -6.026624 15.805591 -3.686705 -2.773842 -4.081793 1.596218 -1.221485 1.410104 8.537314 5.429224 -84.536332 -8.750751 6.728599 -3.839235 1.789031 -0.751955 -1.106679 -0.943396 5.718129 -0.028080 -0.786226 3.799558 -0.513393 -0.266993 -5.546827 0.411991 0.017052 0.104040 -0.019104 -10.412748 6.421633 -3.839846 1.080866 1.258309 -0.143089 0.845174 -4.047609 1.578040 -0.021952 0.029382 0.015401
104.092556 89.198572 94.814081 51.341966 -3.252634 0.362153 -2.301248 1.885971 -0.018524 -1.318729 1.079322 -0.011616 -1.648518 1.349088 -0.018403 -1.318729 1.079322 -0.011616 -2.723627 21.373885 0.793936 -3.102355 -2.908732 1.473989 -0.353338 -0.958931 -3.534456 -17.433951 5.038318 64.730144 65.282646 -5.838043 15.832254 -3.462812 -2.704311 -3.900236 1.588420 -1.201683 1.417607 8.520237 5.412294 -84.559951 -8.674023 6.704536 -3.799745 1.781941 -0.749716 -1.103048 -0.890950 5.718913 -0.024891 -0.778181 3.761923 -0.511378 -0.227881 -5.523890 0.426560 0.015498 0.103389 -0.023753 -10.397278 6.433694 -3.841045 1.119101 1.232714 -0.145128 0.887022 -4.045271 1.574871 -0.023142 0.030811 0.018079
104.078657 89.196425 94.792521 51.240272 -3.261513 0.356834 -2.324925 1.868990 -0.013558 -1.331851 1.070136 -0.007199 -1.664908 1.337622 -0.012887 -1.331852 1.070137 -0.007199 -2.560183 21.334504 0.767763 -2.919361 -2.961381 1.407915 -0.537282 -0.832578 -3.625999 -17.608045 5.407175 65.082022 65.264323 -5.661957 15.900795 -3.201784 -2.668541 -3.772071 1.580204 -1.179312 1.429007 8.502965 5.394900 -84.592004 -8.597540 6.668495 -3.755249 1.774769 -0.753160 -1.096626 -0.846860 5.716823 -0.028348 -0.764913 3.732795 -0.507086 -0.190806 -5.505602 0.440338 0.014183 0.103117 -0.027166 -10.377893 6.447059 -3.846978 1.156188 1.204441 -0.147021 0.924922 -4.038936 1.570823 -0.024253 0.030981 0.021503
104.064708 89.194230 94.769917 51.138961 -3.272914 0.353666 -2.349298 1.853961 -0.010224 -1.345048 1.061761 -0.004109 -1.681395 1.327163 -0.009032 -1.345049 1.061761 -0.004109 -2.399684 21.294823 0.741749 -2.739848 -3.013851 1.342763 -0.715596 -0.718550 -3.719622 -17.791841 5.765419 65.440935 65.178024 -5.494700 15.998065 -2.902181 -2.664087 -3.693907 1.570883 -1.155741 1.442202 8.488250 5.379851 -84.631598 -8.521422 6.622023 -3.704769 1.766229 -0.763294 -1.089018 -0.811034 5.712192 -0.036654 -0.747026 3.713056 -0.498818 -0.153442 -5.492041 0.450773 0.013656 0.102969 -0.028868 -10.353578 6.461497 -3.855760 1.191069 1.177172 -0.147318 0.959941 -4.030986 1.564872 -0.024594 0.030220 0.025237
104.050559 89.191978 94.747005 51.040209 -3.286980 0.350847 -2.374614 1.841262 -0.007416 -1.358704 1.054125 -0.001637 -1.698457 1.317627 -0.005953 -1.358705 1.054125 -0.001637 -2.242614 21.255027 0.714752 -2.564050 -3.065953 1.277418 -0.881172 -0.616047 -3.813215 -17.973767 6.126990 65.811067 65.033390 -5.326586 16.091351 -2.576057 -2.681819 -3.651558 1.559695 -1.132066 1.452028 8.474773 5.366413 -84.670677 -8.447971 6.565717 -3.654231 1.755257 -0.776364 -1.081525 -0.784535 5.704648 -0.047489 -0.726706 3.704540 -0.487172 -0.113866 -5.483647 0.458654 0.013727 0.102315 -0.029858 -10.328106 6.475639 -3.865679 1.224317 1.154816 -0.145432 0.992460 -4.024283 1.557741 -0.024173 0.029435 0.028057
104.036228 89.189679 94.724088 50.946330 -3.302964 0.349179 -2.401004 1.830785 -0.005677 -1.372991 1.047398 -0.000326 -1.716312 1.309223 -0.004330 -1.372991 1.047398 -0.000326 -2.088981 21.214528 0.687872 -2.392209 -3.118363 1.213054 -1.025654 -0.520407 -3.899486 -18.144391 6.496682 66.191366 64.846044 -5.135789 16.145686 -2.240477 -2.710883 -3.627415 1.545813 -1.108620 1.460746 8.460615 5.353227 -84.706394 -8.377519 6.503045 -3.607552 1.742257 -0.788862 -1.073977 -0.767589 5.693944 -0.060319 -0.699849 3.706884 -0.474969 -0.075993 -5.480236 0.465873 0.014280 0.101197 -0.030362 -10.303037 6.489090 -3.876557 1.256692 1.136369 -0.143317 1.021394 -4.018378 1.551945 -0.023246 0.028713 0.029040
104.021745 89.187372 94.701871 50.855519 -3.321892 0.347499 -2.426516 1.823300 -0.005794 -1.386861 1.042433 -0.000448 -1.733649 1.303016 -0.004503 -1.386861 1.042434 -0.000448 -1.939308 21.172217 0.663105 -2.225311 -3.172341 1.151919 -1.145864 -0.428966 -3.970030 -18.302408 6.873399 66.577652 64.628246 -4.893042 16.136204 -1.908084 -2.729531 -3.604058 1.529124 -1.089275 1.474080 8.439029 5.340427 -84.741313 -8.305330 6.436036 -3.562156 1.728318 -0.800384 -1.067897 -0.753063 5.681011 -0.072190 -0.665366 3.720484 -0.464112 -0.044206 -5.481320 0.472860 0.015003 0.099239 -0.030062 -10.275258 6.505153 -3.886796 1.286466 1.119045 -0.141215 1.046885 -4.012664 1.547523 -0.021949 0.028225 0.028421
104.007086 89.185100 94.680773 50.767601 -3.343793 0.345116 -2.449682 1.818742 -0.007044 -1.399679 1.039193 -0.001355 -1.749675 1.298963 -0.005662 -1.399680 1.039194 -0.001355 -1.795251 21.127824 0.640109 -2.065034 -3.228182 1.094022 -1.253919 -0.333455 -4.027137 -18.435861 7.251097 66.972288 64.391014 -4.584043 16.047728 -1.593270 -2.707123 -3.569194 1.509170 -1.076719 1.488827 8.409712 5.327881 -84.776059 -8.227140 6.371597 -3.514081 1.712745 -0.810012 -1.063287 -0.733830 5.666096 -0.080896 -0.631627 3.745137 -0.455270 -0.017624 -5.486505 0.478176 0.015591 0.096347 -0.028127 -10.244587 6.523531 -3.895504 1.311301 1.104320 -0.138808 1.070746 -4.008046 1.543577 -0.020480 0.027944 0.026828
103.992313 89.182897 94.660719 50.684434 -3.367590 0.343251 -2.470837 1.815259 -0.008079 -1.411586 1.036651 -0.002089 -1.764560 1.295781 -0.006603 -1.411586 1.036651 -0.002089 -1.659187 21.082866 0.616654 -1.913396 -3.284139 1.037519 -1.360343 -0.225921 -4.080659 -18.534322 7.624126 67.378810 64.137529 -4.211495 15.880133 -1.303970 -2.633188 -3.526654 1.485722 -1.066512 1.498167 8.372124 5.312283 -84.813327 -8.140362 6.311627 -3.458123 1.699671 -0.815458 -1.060559 -0.711000 5.649487 -0.087435 -0.601283 3.778453 -0.448821 0.004894 -5.495028 0.481624 0.015691 0.093024 -0.024689 -10.214123 6.542721 -3.904859 1.334577 1.091850 -0.134865 1.092586 -4.003330 1.538698 -0.019207 0.027297 0.025264
103.977368 89.180789 94.641721 50.604769 -3.392194 0.342068 -2.489149 1.811528 -0.008890 -1.421784 1.034217 -0.002364 -1.777309 1.292737 -0.006966 -1.421784 1.034217 -0.002364 -1.533325 21.038152 0.592591 -1.772706 -3.339269 0.982755 -1.473001 -0.107427 -4.138050 -18.601138 7.989254 67.804518 63.861769 -3.782354 15.651645 -1.041549 -2.529996 -3.495889 1.460641 -1.055130 1.503836 8.315041 5.291884 -84.856120 -8.045185 6.245898 -3.393748 1.694549 -0.814772 -1.060019 -0.685104 5.631730 -0.092643 -0.571961 3.816999 -0.444636 0.024996 -5.505588 0.484299 0.014890 0.089868 -0.020773 -10.185055 6.564113 -3.915792 1.362205 1.076363 -0.128472 1.110656 -3.995865 1.531421 -0.018222 0.026325 0.024675
103.962049 89.178792 94.623945 50.527133 -3.416629 0.340243 -2.504414 1.807751 -0.009146 -1.430238 1.031957 -0.002149 -1.787875 1.289913 -0.006712 -1.430238 1.031957 -0.002149 -1.416728 20.992515 0.568225 -1.641996 -3.394985 0.929831 -1.596907 0.015434 -4.200040 -18.645556 8.342154 68.250228 63.559477 -3.318910 15.389760 -0.810896 -2.425821 -3.485489 1.436231 -1.042458 1.508773 8.242297 5.267805 -84.902779 -7.944489 6.177007 -3.327500 1.693891 -0.810132 -1.060079 -0.654743 5.614097 -0.096217 -0.545795 3.855949 -0.440304 0.045623 -5.515979 0.484250 0.013764 0.087121 -0.016134 -10.156018 6.587832 -3.926236 1.392633 1.056644 -0.120194 1.125948 -3.985988 1.522166 -0.017256 0.025695 0.024564
